<svg width="310" height="302" viewBox="0 0 310 302" fill="none" xmlns="http://www.w3.org/2000/svg">
<path d="M122.414 134.233C113.114 162.054 115.714 190.423 133.667 191.315C137.13 191.487 140.881 186.95 141.677 185.932C138.008 173.57 128.225 147.988 122.414 134.233Z" fill="white"/>
<path d="M214.979 346.389C223.368 348.686 231.199 354.392 233.391 357.367L293.118 433.35H425.77V393.086C425.77 393.086 326.199 305.51 324.214 301.495C293.118 238.592 303.357 223.396 261.145 150.792C248.995 129.892 233.286 126.309 233.286 126.309C233.286 126.309 215.557 103.515 201.205 106.048C180.944 81.565 162.07 77.4316 152.255 81.565C126.401 39.1192 92.1381 -7.38783 73.7262 8.11695C61.9036 18.0728 96.6697 73.3031 122.414 134.233C128.225 147.988 138.008 173.57 141.677 185.932C148.564 209.136 150.36 228.592 142.122 239.436C124.918 262.081 73.2771 217.507 56.4012 213.144C24.3204 203.013 -4.93333 220.141 23.0724 233.53C81.1233 261.285 101.401 322.403 152.481 336.389C170.308 341.27 204.493 343.518 214.979 346.389Z" fill="white"/>
<path d="M241.728 137.284L233.286 126.309M233.286 126.309C233.286 126.309 215.557 103.515 201.205 106.048M233.286 126.309C233.286 126.309 248.995 129.892 261.145 150.792C303.357 223.396 293.118 238.592 324.214 301.495C326.199 305.51 425.77 393.086 425.77 393.086V433.35H293.118L233.391 357.367C231.199 354.392 223.368 348.686 214.979 346.389C204.493 343.518 170.308 341.27 152.481 336.389C101.401 322.403 81.1233 261.285 23.0724 233.53C-4.93333 220.141 24.3204 203.013 56.4012 213.144C73.2771 217.507 124.918 262.081 142.122 239.436C150.36 228.592 148.564 209.136 141.677 185.932M201.205 106.048C212.595 123.675 217.245 132.219 217.245 132.219M201.205 106.048C180.944 81.565 162.07 77.4316 152.255 81.565C126.401 39.1192 92.1381 -7.38783 73.7262 8.11695M73.7262 8.11695C105.807 -18.8985 186.009 142.35 186.009 142.35M73.7262 8.11695C61.9036 18.0728 96.6697 73.3031 122.414 134.233M122.414 134.233C113.114 162.054 115.714 190.423 133.667 191.315C137.13 191.487 140.881 186.95 141.677 185.932M122.414 134.233C128.225 147.988 138.008 173.57 141.677 185.932" stroke="black" stroke-linecap="round" stroke-linejoin="round"/>
</svg>
