<svg width="476" height="370" viewBox="0 0 476 370" fill="none" xmlns="http://www.w3.org/2000/svg">
<path d="M172.213 179.6H173.845V200.528H186.741V202H172.213V179.6ZM204.763 185.296V202H203.227V198.416C202.672 199.589 201.851 200.507 200.763 201.168C199.675 201.808 198.395 202.128 196.923 202.128C194.747 202.128 193.04 201.52 191.803 200.304C190.565 199.088 189.947 197.339 189.947 195.056V185.296H191.547V194.928C191.547 196.805 192.027 198.235 192.987 199.216C193.947 200.197 195.301 200.688 197.051 200.688C198.928 200.688 200.411 200.101 201.499 198.928C202.608 197.755 203.163 196.176 203.163 194.192V185.296H204.763ZM219.929 185.168C221.486 185.168 222.894 185.531 224.153 186.256C225.412 186.981 226.393 187.984 227.097 189.264C227.822 190.544 228.185 192.005 228.185 193.648C228.185 195.291 227.822 196.763 227.097 198.064C226.393 199.344 225.412 200.347 224.153 201.072C222.894 201.776 221.486 202.128 219.929 202.128C218.457 202.128 217.124 201.787 215.929 201.104C214.734 200.4 213.806 199.429 213.145 198.192V208.208H211.545V185.296H213.081V189.232C213.742 187.952 214.67 186.96 215.865 186.256C217.081 185.531 218.436 185.168 219.929 185.168ZM219.833 200.688C221.113 200.688 222.265 200.389 223.289 199.792C224.313 199.195 225.113 198.363 225.689 197.296C226.286 196.229 226.585 195.013 226.585 193.648C226.585 192.283 226.286 191.067 225.689 190C225.113 188.933 224.313 188.101 223.289 187.504C222.265 186.907 221.113 186.608 219.833 186.608C218.553 186.608 217.401 186.907 216.377 187.504C215.374 188.101 214.574 188.933 213.977 190C213.401 191.067 213.113 192.283 213.113 193.648C213.113 195.013 213.401 196.229 213.977 197.296C214.574 198.363 215.374 199.195 216.377 199.792C217.401 200.389 218.553 200.688 219.833 200.688ZM241.523 185.168C243.08 185.168 244.488 185.531 245.747 186.256C247.005 186.981 247.987 187.984 248.691 189.264C249.416 190.544 249.779 192.005 249.779 193.648C249.779 195.291 249.416 196.763 248.691 198.064C247.987 199.344 247.005 200.347 245.747 201.072C244.488 201.776 243.08 202.128 241.523 202.128C240.051 202.128 238.717 201.787 237.523 201.104C236.328 200.4 235.4 199.429 234.739 198.192V208.208H233.139V185.296H234.675V189.232C235.336 187.952 236.264 186.96 237.459 186.256C238.675 185.531 240.029 185.168 241.523 185.168ZM241.427 200.688C242.707 200.688 243.859 200.389 244.883 199.792C245.907 199.195 246.707 198.363 247.283 197.296C247.88 196.229 248.179 195.013 248.179 193.648C248.179 192.283 247.88 191.067 247.283 190C246.707 188.933 245.907 188.101 244.883 187.504C243.859 186.907 242.707 186.608 241.427 186.608C240.147 186.608 238.995 186.907 237.971 187.504C236.968 188.101 236.168 188.933 235.571 190C234.995 191.067 234.707 192.283 234.707 193.648C234.707 195.013 234.995 196.229 235.571 197.296C236.168 198.363 236.968 199.195 237.971 199.792C238.995 200.389 240.147 200.688 241.427 200.688ZM267.672 185.296L259.096 204.272C258.456 205.744 257.709 206.789 256.856 207.408C256.024 208.027 255.032 208.336 253.88 208.336C253.112 208.336 252.386 208.208 251.704 207.952C251.042 207.696 250.477 207.323 250.008 206.832L250.808 205.616C251.661 206.491 252.696 206.928 253.912 206.928C254.722 206.928 255.416 206.704 255.992 206.256C256.568 205.808 257.101 205.04 257.592 203.952L258.488 201.936L250.968 185.296H252.664L259.352 200.24L266.04 185.296H267.672Z" fill="black"/>
<path d="M137 75.0345C137 48.77 137 35.6377 142.111 25.606C146.608 16.7818 153.782 9.60755 162.606 5.11142C172.638 0 185.77 0 212.034 0H223.966C250.23 0 263.362 0 273.394 5.11142C282.218 9.60755 289.392 16.7818 293.889 25.606C299 35.6377 299 48.77 299 75.0345V86.9655C299 113.23 299 126.362 293.889 136.394C289.392 145.218 282.218 152.392 273.394 156.889C263.362 162 250.23 162 223.966 162H212.034C185.77 162 172.638 162 162.606 156.889C153.782 152.392 146.608 145.218 142.111 136.394C137 126.362 137 113.23 137 86.9655V75.0345Z" fill="white"/>
<g clip-path="url(#clip0)">
<rect width="162" height="162" transform="translate(137)" fill="white"/>
<path fill-rule="evenodd" clip-rule="evenodd" d="M168.353 48.6553C165.182 50.6782 163.262 54.1801 163.262 57.9423V164H272.738V57.9423C272.738 54.1801 270.818 50.6782 267.647 48.6553L223.922 19.4467C220.31 17.1428 215.69 17.1428 212.078 19.4467L168.353 48.6553Z" fill="white" stroke="black"/>
<path d="M234.382 48.2231C245.175 51.5482 251.819 71.796 227.187 73.902C218.733 74.6249 214.596 42.127 234.382 48.2231Z" fill="white"/>
<path d="M215.267 72.3747C209.626 85.5469 183.9 78.206 193.754 58.7569C201.402 43.662 220.909 59.2025 215.267 72.3747Z" fill="white"/>
<path d="M245.064 94.1968C237.697 91.3924 231.919 74.8338 251.697 74.3843C262.126 74.1474 257.827 100.194 245.064 94.1968Z" fill="white"/>
<path d="M197.776 99.0102C199.837 82.6477 230.656 62.7194 241.346 102.7C246.983 123.782 191.887 127.918 197.776 99.0102Z" fill="white"/>
<path d="M182.262 81.5566C188.467 76.8876 202.428 81.3541 193.666 95.9207C190.659 100.92 170.884 90.1163 182.262 81.5566Z" fill="white"/>
<path d="M234.382 48.2231C245.175 51.5482 251.819 71.796 227.187 73.902C218.733 74.6249 214.596 42.127 234.382 48.2231Z" stroke="black"/>
<path d="M215.267 72.3747C209.626 85.5469 183.9 78.206 193.754 58.7569C201.402 43.662 220.909 59.2025 215.267 72.3747Z" stroke="black"/>
<path d="M245.064 94.1968C237.697 91.3924 231.919 74.8338 251.697 74.3843C262.126 74.1474 257.827 100.194 245.064 94.1968Z" stroke="black"/>
<path d="M197.776 99.0102C199.837 82.6477 230.656 62.7194 241.346 102.7C246.983 123.782 191.887 127.918 197.776 99.0102Z" stroke="black"/>
<path d="M182.262 81.5566C188.467 76.8876 202.428 81.3541 193.666 95.9207C190.659 100.92 170.884 90.1163 182.262 81.5566Z" stroke="black"/>
</g>
<path d="M162.606 156.889L162.152 157.78L162.606 156.889ZM293.889 136.394L294.78 136.848L293.889 136.394ZM273.394 156.889L273.848 157.78L273.394 156.889ZM293.889 25.606L294.78 25.152L293.889 25.606ZM212.034 1H223.966V-1H212.034V1ZM298 75.0345V86.9655H300V75.0345H298ZM223.966 161H212.034V163H223.966V161ZM138 86.9655V75.0345H136V86.9655H138ZM212.034 161C198.886 161 189.084 160.999 181.314 160.364C173.556 159.731 167.911 158.469 163.06 155.998L162.152 157.78C167.332 160.419 173.27 161.714 181.151 162.358C189.022 163.001 198.919 163 212.034 163V161ZM136 86.9655C136 100.081 135.999 109.978 136.642 117.849C137.286 125.73 138.581 131.668 141.22 136.848L143.002 135.94C140.531 131.089 139.269 125.444 138.636 117.686C138.001 109.916 138 100.114 138 86.9655H136ZM163.06 155.998C154.424 151.597 147.403 144.576 143.002 135.94L141.22 136.848C145.812 145.86 153.14 153.188 162.152 157.78L163.06 155.998ZM298 86.9655C298 100.114 297.999 109.916 297.364 117.686C296.731 125.444 295.469 131.089 292.998 135.94L294.78 136.848C297.419 131.668 298.714 125.73 299.358 117.849C300.001 109.978 300 100.081 300 86.9655H298ZM223.966 163C237.081 163 246.978 163.001 254.849 162.358C262.73 161.714 268.668 160.419 273.848 157.78L272.94 155.998C268.089 158.469 262.444 159.731 254.686 160.364C246.916 160.999 237.114 161 223.966 161V163ZM292.998 135.94C288.597 144.576 281.576 151.597 272.94 155.998L273.848 157.78C282.86 153.188 290.188 145.86 294.78 136.848L292.998 135.94ZM223.966 1C237.114 1 246.916 1.00078 254.686 1.63561C262.444 2.26948 268.089 3.53052 272.94 6.00243L273.848 4.22041C268.668 1.5809 262.73 0.286228 254.849 -0.357752C246.978 -1.00078 237.081 -1 223.966 -1V1ZM300 75.0345C300 61.9187 300.001 52.0218 299.358 44.1515C298.714 36.2696 297.419 30.3323 294.78 25.152L292.998 26.06C295.469 30.9113 296.731 36.5561 297.364 44.3144C297.999 52.0843 298 61.8857 298 75.0345H300ZM272.94 6.00243C281.576 10.4027 288.597 17.424 292.998 26.06L294.78 25.152C290.188 16.1397 282.86 8.81242 273.848 4.22041L272.94 6.00243ZM212.034 -1C198.919 -1 189.022 -1.00078 181.151 -0.357752C173.27 0.286228 167.332 1.5809 162.152 4.22041L163.06 6.00243C167.911 3.53052 173.556 2.26948 181.314 1.63561C189.084 1.00078 198.886 1 212.034 1V-1ZM138 75.0345C138 61.8857 138.001 52.0843 138.636 44.3144C139.269 36.5561 140.531 30.9113 143.002 26.06L141.22 25.152C138.581 30.3323 137.286 36.2696 136.642 44.1515C135.999 52.0218 136 61.9187 136 75.0345H138ZM162.152 4.22041C153.14 8.81242 145.812 16.1397 141.22 25.152L143.002 26.06C147.403 17.424 154.424 10.4027 163.06 6.00243L162.152 4.22041Z" fill="black"/>
<path d="M288.414 202.233C279.114 230.054 281.714 258.423 299.667 259.315C303.13 259.487 306.881 254.95 307.677 253.932C304.008 241.57 294.225 215.988 288.414 202.233Z" fill="white"/>
<path d="M380.979 414.389C389.368 416.686 397.199 422.392 399.391 425.367L459.118 501.35H591.77V461.086C591.77 461.086 492.199 373.51 490.214 369.495C459.118 306.592 469.357 291.396 427.145 218.792C414.995 197.892 399.286 194.309 399.286 194.309C399.286 194.309 381.557 171.515 367.205 174.048C346.944 149.565 328.07 145.432 318.255 149.565C292.401 107.119 258.138 60.6122 239.726 76.117C227.904 86.0728 262.67 141.303 288.414 202.233C294.225 215.988 304.008 241.57 307.677 253.932C314.564 277.136 316.36 296.592 308.122 307.436C290.918 330.081 239.277 285.507 222.401 281.144C190.32 271.013 161.067 288.141 189.072 301.53C247.123 329.285 267.401 390.403 318.481 404.389C336.308 409.27 370.493 411.518 380.979 414.389Z" fill="white"/>
<path d="M407.728 205.284L399.286 194.309M399.286 194.309C399.286 194.309 381.557 171.515 367.205 174.048M399.286 194.309C399.286 194.309 414.995 197.892 427.145 218.792C469.357 291.396 459.118 306.592 490.214 369.495C492.199 373.51 591.77 461.086 591.77 461.086V501.35H459.118L399.391 425.367C397.199 422.392 389.368 416.686 380.979 414.389C370.493 411.518 336.308 409.27 318.481 404.389C267.401 390.403 247.123 329.285 189.072 301.53C161.067 288.141 190.32 271.013 222.401 281.144C239.277 285.507 290.918 330.081 308.122 307.436C316.36 296.592 314.564 277.136 307.677 253.932M367.205 174.048C378.595 191.675 383.245 200.219 383.245 200.219M367.205 174.048C346.944 149.565 328.07 145.432 318.255 149.565C292.401 107.119 258.138 60.6122 239.726 76.117M239.726 76.117C271.807 49.1015 352.009 210.35 352.009 210.35M239.726 76.117C227.904 86.0728 262.67 141.303 288.414 202.233M288.414 202.233C279.114 230.054 281.714 258.423 299.667 259.315C303.13 259.487 306.881 254.95 307.677 253.932M288.414 202.233C294.225 215.988 304.008 241.57 307.677 253.932" stroke="black" stroke-linecap="round" stroke-linejoin="round"/>
<defs>
<clipPath id="clip0">
<rect width="162" height="162" fill="white" transform="translate(137)"/>
</clipPath>
</defs>
</svg>
