<svg width="616" height="618" viewBox="0 0 616 618" fill="none" xmlns="http://www.w3.org/2000/svg">
<path d="M452.096 246.562C452.096 246.562 428.005 267.016 402.435 278.602C376.866 290.188 317.991 296.759 297.691 297.24H283.728C283.728 297.24 278.591 297.24 272.268 296.576V280.675C286.694 282.53 369.069 278.602 406.088 260.918C443.107 243.234 452.096 233.884 452.096 233.884L461.759 231.777L452.096 225.844L465.312 218.725L450.516 215.165L459.389 206.859L450.516 201.988C450.516 201.988 456.835 183.818 441.62 149.906C426.405 115.993 398.648 41.0889 398.648 41.0889C395.86 29.2117 395.612 6.20763 381.007 1.58824C377.256 0.401684 371.728 0.401709 365.805 7.52094C364.418 9.18781 362.638 12.6649 360.724 17.0133C356.307 27.0495 351.181 41.7265 348.545 49.4987C347.384 52.9237 345.145 55.8724 342.139 57.8769C339.499 59.6368 336.399 60.5759 333.228 60.5759H306.336C302.115 60.5759 297.953 59.5728 294.194 57.6491C290.51 55.7638 287.313 53.0465 284.858 49.7116L261.642 19.3354C258.68 14.5892 245.461 1.20042 241.104 8.53952C233.848 20.7626 242.605 33.6249 239.356 60.1718C239.356 63.7312 240.163 67.2416 241.801 70.4005C244.84 76.263 248.045 82.5717 248.045 89.0163C248.045 92.9517 246.376 100.203 245.675 104.29C244.974 108.377 237.381 119.031 236.682 123.802C235.982 128.573 236.197 144.798 236.197 148.267C240.726 140.409 250.334 138.023 256.207 131.677C245.545 129.304 240.236 123.802 240.236 123.802C240.236 123.802 249.888 117.365 253.047 116.93C256.207 116.496 260.334 116.772 260.946 120.88C261.559 124.988 258.005 129.734 256.207 131.677C250.334 138.023 240.726 140.409 236.197 148.267L229.574 160.268C242.017 150.704 280.479 155.419 273.979 171.842C269.321 183.613 251.765 177.712 248.528 189.061C252.41 196.091 256.886 202.405 264.176 205.906C269.697 208.557 274.544 209.003 280.424 207.574C289.435 205.386 295.164 204.451 304.491 205.066C316.637 205.866 326.874 195.261 338.091 191.718C321.241 209.603 303.95 225.298 284.057 239.895C279.703 243.09 273.377 245.489 266.72 246.648C261.734 252.192 256.357 255.511 248.986 254.321C241.311 253.082 239.552 247.269 240.981 240.06C240.981 227.031 247.158 216.021 251.347 210.543C255.536 205.066 259.531 203.043 259.531 203.043L243.789 198.554C238.13 205.243 231.732 204.054 228.389 197.367C226.411 193.409 226.528 189.415 226.747 184.994C226.879 182.319 227.102 177.948 227.205 176.009C224.494 173.085 225.171 168.749 226.02 165.331C226.515 163.338 227.772 161.653 229.574 160.268L236.197 148.267C236.197 144.798 235.982 128.573 236.682 123.802C237.381 119.031 244.974 108.377 245.675 104.29C246.376 100.203 248.045 92.9517 248.045 89.0163C248.045 82.5717 244.84 76.263 241.801 70.4005C240.163 67.2416 239.356 63.7312 239.356 60.1718C242.605 33.6249 233.848 20.7626 241.104 8.53952C245.461 1.20042 258.68 14.5892 261.642 19.3354L284.858 49.7116C287.313 53.0465 290.51 55.7638 294.194 57.6491C297.953 59.5728 302.115 60.5759 306.336 60.5759H333.228C336.399 60.5759 339.499 59.6368 342.139 57.8769C345.145 55.8724 347.384 52.9237 348.545 49.4987C351.181 41.7265 356.307 27.0495 360.724 17.0133C362.638 12.6649 364.418 9.18781 365.805 7.52094C371.728 0.401709 377.256 0.401684 381.007 1.58824C395.612 6.20763 395.86 29.2117 398.648 41.0889C398.648 41.0889 426.405 115.993 441.62 149.906C456.835 183.818 450.516 201.988 450.516 201.988L459.389 206.859L450.516 215.165L465.312 218.725L452.096 225.844L461.759 231.777L452.096 233.884V246.562Z" fill="white"/>
<path d="M328.16 121.831L338.091 123.777V126.37C338.091 129.519 336.026 132.294 333.013 133.193L323.878 135.92C321.722 136.564 319.388 136.147 317.587 134.796L306.759 126.674C314.591 118.84 317.475 119.732 328.16 121.831Z" fill="white"/>
<path d="M304.743 323.732C304.743 332.351 298.39 339.338 290.553 339.338C282.716 339.338 276.363 332.351 276.363 323.732C276.363 317.833 279.338 312.699 283.728 310.046C285.753 308.821 288.079 308.125 290.553 308.125C293.027 308.125 295.354 308.821 297.379 310.046C301.769 312.699 304.743 317.833 304.743 323.732Z" fill="white"/>
<path fill-rule="evenodd" clip-rule="evenodd" d="M406.088 260.918C443.107 243.234 452.096 233.884 452.096 233.884L461.759 231.777L452.096 225.844L465.312 218.725L450.516 215.165L459.389 206.859L450.516 201.988C450.516 201.988 456.835 183.818 441.62 149.906C426.405 115.993 398.648 41.0889 398.648 41.0889C395.86 29.2117 395.612 6.20763 381.007 1.58824C377.256 0.401684 371.728 0.401709 365.805 7.52094C364.418 9.18781 362.638 12.6649 360.724 17.0133C356.307 27.0495 351.181 41.7265 348.545 49.4987C347.384 52.9237 345.145 55.8724 342.139 57.8769C339.499 59.6368 336.399 60.5759 333.228 60.5759H306.336C302.115 60.5759 297.953 59.5728 294.194 57.6491C290.51 55.7638 287.313 53.0465 284.858 49.7116L261.642 19.3354C258.68 14.5892 245.461 1.20042 241.104 8.53952C233.848 20.7626 242.605 33.6249 239.356 60.1718C239.356 63.7312 240.163 67.2416 241.801 70.4005C244.84 76.263 248.045 82.5717 248.045 89.0163C248.045 92.9517 246.376 100.203 245.675 104.29C244.974 108.377 237.381 119.031 236.682 123.802C235.982 128.573 236.197 144.798 236.197 148.267C240.726 140.409 250.334 138.023 256.207 131.677C245.545 129.304 240.236 123.802 240.236 123.802C240.236 123.802 249.888 117.365 253.047 116.93C256.207 116.496 260.334 116.772 260.946 120.88C261.559 124.988 258.005 129.734 256.207 131.677C250.334 138.023 240.726 140.409 236.197 148.267L229.574 160.268C242.017 150.704 280.479 155.419 273.979 171.842C269.321 183.613 251.765 177.712 248.528 189.061C252.41 196.091 256.886 202.405 264.176 205.906C269.697 208.557 274.544 209.003 280.424 207.574C289.435 205.386 295.164 204.451 304.491 205.066C316.637 205.866 326.874 195.261 338.091 191.718C321.241 209.603 303.95 225.298 284.057 239.895C279.703 243.09 273.377 245.489 266.72 246.648C264.872 248.703 262.971 250.452 260.934 251.779C263.32 259.029 264.222 266.42 264.405 268.579C264.442 269.013 264.462 269.448 264.358 269.871C263.913 271.682 262.086 275.159 262.086 275.159L266.824 277.532L264.455 283.465L272.268 280.675C286.694 282.53 369.069 278.602 406.088 260.918ZM328.16 121.831L338.091 123.777V126.37C338.091 129.519 336.026 132.294 333.013 133.193L323.878 135.92C321.722 136.564 319.388 136.147 317.587 134.796L306.759 126.674C314.591 118.84 317.475 119.732 328.16 121.831Z" fill="white"/>
<path d="M452.096 246.562C452.096 246.562 428.005 267.016 402.435 278.602C376.866 290.188 317.991 296.759 297.691 297.24M452.096 246.562V233.884M452.096 246.562L461.759 248.316L456.009 255.366H468.983L462.869 267.041L498.602 310.679M452.096 233.884C452.096 233.884 443.107 243.234 406.088 260.918C369.069 278.602 286.694 282.53 272.268 280.675M452.096 233.884L461.759 231.777L452.096 225.844L465.312 218.725L450.516 215.165L459.389 206.859L450.516 201.988C450.516 201.988 456.835 183.818 441.62 149.906C426.405 115.993 398.648 41.0889 398.648 41.0889M272.268 296.576L264.358 303.689L271.773 309.356L266.364 315.833C263.112 327.671 260.395 356.843 259.103 365.42M272.268 296.576C278.591 297.24 283.728 297.24 283.728 297.24M272.268 296.576V280.675M272.268 280.675L264.455 283.465L266.824 277.532L262.086 275.159C262.086 275.159 263.913 271.682 264.358 269.871C264.462 269.448 264.442 269.013 264.405 268.579C264.222 266.42 263.32 259.029 260.934 251.779C262.971 250.452 264.872 248.703 266.72 246.648M243.789 198.554L259.531 203.043C259.531 203.043 255.536 205.066 251.347 210.543C247.158 216.021 240.981 227.031 240.981 240.06M243.789 198.554C245.457 196.036 248.528 189.061 248.528 189.061M243.789 198.554C238.13 205.243 231.732 204.054 228.389 197.367C226.411 193.409 226.528 189.415 226.747 184.994C226.879 182.319 227.102 177.948 227.205 176.009M256.207 131.677C258.005 129.734 261.559 124.988 260.946 120.88C260.334 116.772 256.207 116.496 253.047 116.93C249.888 117.365 240.236 123.802 240.236 123.802C240.236 123.802 245.545 129.304 256.207 131.677ZM256.207 131.677C250.334 138.023 240.726 140.409 236.197 148.267M261.642 19.3354L284.858 49.7116C287.313 53.0465 290.51 55.7638 294.194 57.6491C297.953 59.5728 302.115 60.5759 306.336 60.5759H333.228C336.399 60.5759 339.499 59.6368 342.139 57.8769C345.145 55.8724 347.384 52.9237 348.545 49.4987C351.181 41.7265 356.307 27.0495 360.724 17.0133M261.642 19.3354C267.565 28.8277 280.22 53.5512 278.143 64.4749C277.042 70.2683 256.207 83.4595 256.207 83.4595M261.642 19.3354C258.68 14.5892 245.461 1.20042 241.104 8.53952C233.848 20.7626 242.605 33.6249 239.356 60.1718C239.356 63.7312 240.163 67.2416 241.801 70.4005C244.84 76.263 248.045 82.5717 248.045 89.0163C248.045 92.9517 246.376 100.203 245.675 104.29C244.974 108.377 237.381 119.031 236.682 123.802C235.982 128.573 236.197 144.798 236.197 148.267M402.528 113.507C414.182 113.507 414.182 103.103 413.189 98.8845C408.638 79.5402 404.456 60.1103 398.648 41.0889M352.045 126.674L338.091 123.777M338.091 123.777L328.16 121.831C317.475 119.732 314.591 118.84 306.759 126.674L317.587 134.796C319.388 136.147 321.722 136.564 323.878 135.92L333.013 133.193C336.026 132.293 338.091 129.519 338.091 126.37V123.777ZM331.508 113.507L318.71 108.277C317.004 107.58 315.095 107.573 313.385 108.258L310.128 109.563M248.045 111.4C248.045 111.4 254.409 103.763 256.207 104.29C258.005 104.817 260.374 109.563 260.374 109.563M248.528 189.061C252.41 196.091 256.886 202.405 264.176 205.906M248.528 189.061C242.605 181.942 231.854 181.024 227.205 176.009M248.528 189.061C251.765 177.712 269.321 183.613 273.979 171.842C280.479 155.419 242.017 150.704 229.574 160.268M339.743 228.217C338.405 227.949 335.987 228.426 333.046 229.325C314.873 234.88 299.111 247.318 280.424 250.761C276.949 251.402 269.169 251.675 262.086 251.573M367.843 84.8029C367.843 84.8029 357.311 76.3402 354.415 70.3194C347.796 56.5604 356.25 30.2446 360.724 17.0133M236.197 148.267L229.574 160.268M280.424 207.574C276.433 210.443 264.176 217.538 258.005 231.777M280.424 207.574C289.435 205.386 295.164 204.451 304.491 205.066M280.424 207.574C274.544 209.003 269.697 208.557 264.176 205.906M360.724 17.0133C362.638 12.6649 364.418 9.18781 365.805 7.52094C371.728 0.401709 377.256 0.401684 381.007 1.58824C395.612 6.20763 395.86 29.2117 398.648 41.0889M227.205 176.009C224.494 173.085 225.171 168.749 226.02 165.331C226.515 163.338 227.772 161.653 229.574 160.268M264.176 205.906C256.923 208.952 243.599 226.851 240.981 240.06M304.491 205.066C285.02 215.738 276.647 235.607 266.72 246.648M304.491 205.066C316.637 205.866 326.874 195.261 338.091 191.718C321.241 209.603 303.95 225.298 284.057 239.895C279.703 243.09 273.377 245.489 266.72 246.648M240.981 240.06C239.552 247.269 241.311 253.082 248.986 254.321C256.357 255.511 261.734 252.192 266.72 246.648M283.728 297.24V310.046M283.728 297.24H297.691M283.728 310.046C279.338 312.699 276.363 317.833 276.363 323.732C276.363 332.351 282.716 339.338 290.553 339.338C298.39 339.338 304.743 332.351 304.743 323.732C304.743 317.833 301.769 312.699 297.379 310.046M283.728 310.046C285.753 308.821 288.079 308.125 290.553 308.125C293.027 308.125 295.354 308.821 297.379 310.046M297.691 297.24L297.379 310.046" stroke="black" stroke-linecap="round" stroke-linejoin="round"/>
<path d="M326.946 419.35C326.946 419.35 324.932 424.706 321.506 425.402C318.081 426.098 314.494 422.435 314.494 422.435L313.661 410.044C313.661 410.044 314.748 425.427 314.748 427.292C314.748 429.157 313.094 432.289 311.132 433.794C309.17 435.298 306.69 436.157 304.083 436.615C301.477 437.074 299.437 435.509 297.352 433.794C295.267 432.078 294.923 425.402 294.923 425.402C294.923 425.402 294.443 429.796 293.847 431.735C292.642 435.659 286.508 438.629 282.779 438.092C278.157 437.426 273.862 432.249 272.903 427.814C272.146 424.31 272.903 421.745 272.903 421.745C272.903 421.745 268.732 421.812 267.04 420.73C265.348 419.647 263.376 412.004 263.624 408.46C263.871 404.915 270.377 388.659 271.279 381.029C272.181 373.399 282.727 359.025 289.028 341.477C291.921 333.42 297.293 327.36 301.46 323.589C308.358 317.345 318.827 320.867 326.946 322.122C343.855 326.98 355.04 348.303 371.08 365.421H337.657C336.298 381.262 329.991 398.148 326.946 419.35Z" fill="white"/>
<path d="M185.971 302.189C193.246 303.246 203.574 309.384 213.191 315.671C223.337 322.304 231 329.1 236.581 339.87L249.823 365.421H179.86C176.446 369.34 176.509 377.028 172.006 379.378C167.502 381.729 166.384 380.172 164.85 378.889L161.508 383.321C158.753 386.976 155.407 390.099 151.851 392.979C149.625 394.783 147.623 396.805 145.823 399.948C144.466 402.317 143.124 404.716 141.53 406.917C139.923 409.135 137.799 410.952 135.26 411.973C132.852 412.941 129.33 413.888 124.939 413.751C120.535 413.613 120.986 407.194 122.494 400.915C120.767 405.149 118.547 409.372 116.002 411.464C109.849 416.519 95.1795 412.61 95.1795 412.61C92.2914 412.191 91.2098 409.575 91.1569 406.076C90.9211 405.895 90.6736 405.635 90.414 405.287C85.5355 398.742 88.6599 393.626 89.6004 387.131C90.3528 381.935 97.4456 375.627 100.898 373.122C104.728 367.092 115.033 353.054 125.605 345.147C138.821 335.263 136.619 328.441 150.578 318.002C164.536 307.563 178.968 301.171 185.971 302.189Z" fill="white"/>
<path d="M295.445 411.778L294.923 425.402M272.903 421.745C272.903 421.745 272.146 424.31 272.903 427.814C273.862 432.249 278.157 437.425 282.779 438.092C286.508 438.629 292.642 435.659 293.847 431.735C294.443 429.796 294.923 425.402 294.923 425.402M272.903 421.745L275.19 410.044M272.903 421.745C272.903 421.745 268.732 421.812 267.04 420.73C265.348 419.647 263.376 412.004 263.624 408.46C263.871 404.915 270.377 388.659 271.279 381.029C272.181 373.399 282.727 359.025 289.028 341.477C291.921 333.42 297.293 327.36 301.46 323.589C308.358 317.345 318.827 320.867 326.946 322.122C343.855 326.98 355.04 348.303 371.08 365.421H337.657M294.923 425.402C294.923 425.402 295.267 432.078 297.352 433.794C299.437 435.509 301.477 437.074 304.083 436.615C306.69 436.157 309.17 435.298 311.132 433.794C313.094 432.289 314.748 429.157 314.748 427.292C314.748 425.427 313.661 410.044 313.661 410.044L314.494 422.435C314.494 422.435 318.081 426.098 321.506 425.402C324.932 424.706 326.946 419.35 326.946 419.35C329.991 398.148 336.298 381.262 337.657 365.421M338.392 357.782L337.657 365.421M91.1569 406.076C90.9211 405.895 90.6736 405.635 90.414 405.287C85.5355 398.742 88.6599 393.626 89.6004 387.131C90.3528 381.935 97.4456 375.627 100.898 373.122C104.728 367.092 115.033 353.054 125.605 345.147C138.821 335.263 136.619 328.441 150.578 318.002C164.536 307.563 178.968 301.171 185.971 302.189C193.246 303.246 203.574 309.384 213.191 315.671C223.337 322.304 231 329.1 236.581 339.87L249.823 365.421H179.86M91.1569 406.076C91.073 400.526 95.1795 387.131 99.9946 383.124M91.1569 406.076C91.2098 409.575 92.2914 412.191 95.1795 412.61C95.1795 412.61 109.849 416.519 116.002 411.464C118.547 409.372 120.767 405.149 122.494 400.915M185.971 350.734C185.044 357.13 184.17 360.475 179.86 365.421M179.86 365.421C176.446 369.34 176.509 377.028 172.006 379.378C167.502 381.729 166.384 380.172 164.85 378.889M164.85 378.889L161.508 383.321C158.753 386.976 155.407 390.099 151.851 392.979C149.625 394.783 147.623 396.805 145.823 399.948C144.466 402.317 143.124 404.716 141.53 406.917C139.923 409.135 137.799 410.952 135.26 411.973C132.852 412.941 129.33 413.888 124.939 413.751C120.535 413.613 120.986 407.194 122.494 400.915M164.85 378.889C162.199 376.194 160.208 374.041 160.208 367.434M122.494 400.915C123.953 394.84 126.402 388.897 126.402 388.897C126.402 388.897 124.942 394.916 122.494 400.915Z" stroke="black" stroke-linecap="round" stroke-linejoin="round"/>
<path d="M188.307 232.325C185.905 233.155 124.903 261.489 96.0688 278.186M166.618 206.997L114.105 210.5M176.535 176.478L123.6 161.229M192.257 145.987L98.0448 91.4967" stroke="black" stroke-linecap="round" stroke-linejoin="round"/>
</svg>
