<svg width="488" height="443" viewBox="0 0 488 443" fill="none" xmlns="http://www.w3.org/2000/svg">
<path d="M527.959 212.515L366.443 172.976C361.407 171.863 357.011 168.782 353.723 164.618C327.554 131.477 268.318 87.0047 235.996 93.9231M246.866 140.058C246.866 140.058 246.794 147.377 232.648 160.046M232.648 160.046C240.381 171.64 261.267 207.677 289.985 207.677C318.702 207.677 330.194 199.704 330.194 199.704M232.648 160.046C221.005 170.473 199.694 178.459 164.55 175.24C160.394 174.859 158.248 169.919 160.919 166.548C170.423 154.555 182.045 146.785 222.892 101.338C226.424 97.4084 230.872 95.02 235.996 93.9231M462.68 337.903L344.599 271.653C343.329 271.015 341.995 270.509 340.624 270.174C324.965 266.348 316.325 268.19 310.238 270.174M109.915 228.354C100.446 237.609 92.5833 248.844 100.275 255.923C108.721 263.697 118.359 261.45 125.157 258.012M109.915 228.354C100.149 230.651 80.4311 233.868 79.6822 228.354C78.7462 221.462 98.4025 198.815 102.147 196.846C105.891 194.877 66.5777 208.662 66.5777 196.846C66.5777 186.427 81.1339 165.289 89.7096 158.413M109.915 228.354C110.446 227.835 110.982 227.322 111.521 226.816M269.589 286.446C278.029 285.632 284.333 283.118 289.445 281.523M-21.7544 -48.0826L149.883 82.6307C152.379 84.6 160.179 87.5538 167.667 87.5538C177.027 87.5538 185.452 82.6307 201.364 82.6307C217.276 82.6307 228.947 86.5078 235.996 93.9231M-36.8042 96.4154C-7.78776 107.246 84.248 140.978 87.17 149.585C87.6498 150.998 88.5055 154.075 89.7096 158.413M182.857 292.182C169.82 303.357 157.453 300.197 146.199 289.117M162.987 261.831C173.907 285.462 202.221 320.711 225.435 288.415M192.94 244.108C208.228 274.959 243.471 318.938 272.501 296.292C272.501 289.4 272.156 286.47 254.717 273.646C240.765 263.387 230.183 235.886 228.508 224.415C249.101 235.246 280.629 264.772 294.965 290.385C309.941 317.14 333.643 265.977 265.974 199.287M111.521 226.816C115.65 237.589 120.215 248.282 125.157 258.012M111.521 226.816C101.208 199.907 93.6209 172.506 89.7096 158.413M125.157 258.012C125.762 259.202 126.372 260.378 126.988 261.538M126.988 261.538C120.064 271.775 111.382 287.244 118.066 292.354C125.277 297.868 136.149 295.663 146.199 289.117M126.988 261.538C132.913 272.7 139.35 282.374 146.199 289.117M289.445 64.9077L306.197 -7.95388M320.238 71.8L344.599 28.4769M340.624 96.4154L388.567 59M353.723 118.077L456.896 111.185M49.7294 217.523C47.483 217.523 -12.3595 205.051 -42 198.816M45.0494 244.108L-0.815361 261.538M55.3455 273.646L26.3291 304.169M87.17 296.292L34.7532 381.954" stroke="black" stroke-linecap="round" stroke-linejoin="round"/>
</svg>
