<svg width="162" height="162" viewBox="0 0 162 162" fill="none" xmlns="http://www.w3.org/2000/svg">
<path d="M0 75.0345C0 48.77 0 35.6377 5.11142 25.606C9.60755 16.7818 16.7818 9.60755 25.606 5.11142C35.6377 0 48.77 0 75.0345 0H86.9655C113.23 0 126.362 0 136.394 5.11142C145.218 9.60755 152.392 16.7818 156.889 25.606C162 35.6377 162 48.77 162 75.0345V86.9655C162 113.23 162 126.362 156.889 136.394C152.392 145.218 145.218 152.392 136.394 156.889C126.362 162 113.23 162 86.9655 162H75.0345C48.77 162 35.6377 162 25.606 156.889C16.7818 152.392 9.60755 145.218 5.11142 136.394C0 126.362 0 113.23 0 86.9655V75.0345Z" fill="white"/>
<g clip-path="url(#clip0)">
<rect width="162" height="162" fill="white"/>
<path fill-rule="evenodd" clip-rule="evenodd" d="M31.3533 48.6553C28.1817 50.6782 26.2617 54.1801 26.2617 57.9423V164H135.738V57.9423C135.738 54.1801 133.818 50.6782 130.647 48.6553L86.9223 19.4467C83.3101 17.1428 78.6899 17.1428 75.0777 19.4467L31.3533 48.6553Z" fill="white" stroke="black"/>
<path d="M97.3821 48.2231C108.175 51.5482 114.819 71.796 90.1873 73.902C81.7329 74.6249 77.5959 42.127 97.3821 48.2231Z" fill="white"/>
<path d="M78.2674 72.3747C72.6262 85.5469 46.9004 78.206 56.7543 58.7569C64.4023 43.662 83.9085 59.2025 78.2674 72.3747Z" fill="white"/>
<path d="M108.064 94.1968C100.697 91.3924 94.9193 74.8338 114.697 74.3843C125.126 74.1474 120.827 100.194 108.064 94.1968Z" fill="white"/>
<path d="M60.7755 99.0102C62.837 82.6477 93.6564 62.7194 104.346 102.7C109.983 123.782 54.8866 127.918 60.7755 99.0102Z" fill="white"/>
<path d="M45.2615 81.5566C51.4672 76.8876 65.4283 81.3541 56.6663 95.9207C53.659 100.92 33.8844 90.1163 45.2615 81.5566Z" fill="white"/>
<path d="M97.3821 48.2231C108.175 51.5482 114.819 71.796 90.1873 73.902C81.7329 74.6249 77.5959 42.127 97.3821 48.2231Z" stroke="black"/>
<path d="M78.2674 72.3747C72.6262 85.5469 46.9004 78.206 56.7543 58.7569C64.4023 43.662 83.9085 59.2025 78.2674 72.3747Z" stroke="black"/>
<path d="M108.064 94.1968C100.697 91.3924 94.9193 74.8338 114.697 74.3843C125.126 74.1474 120.827 100.194 108.064 94.1968Z" stroke="black"/>
<path d="M60.7755 99.0102C62.837 82.6477 93.6564 62.7194 104.346 102.7C109.983 123.782 54.8866 127.918 60.7755 99.0102Z" stroke="black"/>
<path d="M45.2615 81.5566C51.4672 76.8876 65.4283 81.3541 56.6663 95.9207C53.659 100.92 33.8844 90.1163 45.2615 81.5566Z" stroke="black"/>
</g>
<path d="M25.606 156.889L25.152 157.78L25.606 156.889ZM156.889 136.394L157.78 136.848L156.889 136.394ZM136.394 156.889L136.848 157.78L136.394 156.889ZM156.889 25.606L157.78 25.152L156.889 25.606ZM75.0345 1H86.9655V-1H75.0345V1ZM161 75.0345V86.9655H163V75.0345H161ZM86.9655 161H75.0345V163H86.9655V161ZM1 86.9655V75.0345H-1V86.9655H1ZM75.0345 161C61.8857 161 52.0843 160.999 44.3144 160.364C36.5561 159.731 30.9113 158.469 26.06 155.998L25.152 157.78C30.3323 160.419 36.2696 161.714 44.1515 162.358C52.0218 163.001 61.9187 163 75.0345 163V161ZM-1 86.9655C-1 100.081 -1.00078 109.978 -0.357752 117.849C0.286228 125.73 1.5809 131.668 4.22041 136.848L6.00243 135.94C3.53052 131.089 2.26948 125.444 1.63561 117.686C1.00078 109.916 1 100.114 1 86.9655H-1ZM26.06 155.998C17.424 151.597 10.4027 144.576 6.00243 135.94L4.22041 136.848C8.81242 145.86 16.1397 153.188 25.152 157.78L26.06 155.998ZM161 86.9655C161 100.114 160.999 109.916 160.364 117.686C159.731 125.444 158.469 131.089 155.998 135.94L157.78 136.848C160.419 131.668 161.714 125.73 162.358 117.849C163.001 109.978 163 100.081 163 86.9655H161ZM86.9655 163C100.081 163 109.978 163.001 117.849 162.358C125.73 161.714 131.668 160.419 136.848 157.78L135.94 155.998C131.089 158.469 125.444 159.731 117.686 160.364C109.916 160.999 100.114 161 86.9655 161V163ZM155.998 135.94C151.597 144.576 144.576 151.597 135.94 155.998L136.848 157.78C145.86 153.188 153.188 145.86 157.78 136.848L155.998 135.94ZM86.9655 1C100.114 1 109.916 1.00078 117.686 1.63561C125.444 2.26948 131.089 3.53052 135.94 6.00243L136.848 4.22041C131.668 1.5809 125.73 0.286228 117.849 -0.357752C109.978 -1.00078 100.081 -1 86.9655 -1V1ZM163 75.0345C163 61.9187 163.001 52.0218 162.358 44.1515C161.714 36.2696 160.419 30.3323 157.78 25.152L155.998 26.06C158.469 30.9113 159.731 36.5561 160.364 44.3144C160.999 52.0843 161 61.8857 161 75.0345H163ZM135.94 6.00243C144.576 10.4027 151.597 17.424 155.998 26.06L157.78 25.152C153.188 16.1397 145.86 8.81242 136.848 4.22041L135.94 6.00243ZM75.0345 -1C61.9187 -1 52.0218 -1.00078 44.1515 -0.357752C36.2696 0.286228 30.3323 1.5809 25.152 4.22041L26.06 6.00243C30.9113 3.53052 36.5561 2.26948 44.3144 1.63561C52.0843 1.00078 61.8857 1 75.0345 1V-1ZM1 75.0345C1 61.8857 1.00078 52.0843 1.63561 44.3144C2.26948 36.5561 3.53052 30.9113 6.00243 26.06L4.22041 25.152C1.5809 30.3323 0.286228 36.2696 -0.357752 44.1515C-1.00078 52.0218 -1 61.9187 -1 75.0345H1ZM25.152 4.22041C16.1397 8.81242 8.81242 16.1397 4.22041 25.152L6.00243 26.06C10.4027 17.424 17.424 10.4027 26.06 6.00243L25.152 4.22041Z" fill="black"/>
<defs>
<clipPath id="clip0">
<rect width="162" height="162" fill="white"/>
</clipPath>
</defs>
</svg>
