<svg width="98" height="32" viewBox="0 0 98 32" fill="none" xmlns="http://www.w3.org/2000/svg">
<path fill-rule="evenodd" clip-rule="evenodd" d="M0.959121 23.7898C1.59854 24.4298 2.46814 24.7498 3.56793 24.7498H13.8497C14.5659 24.7498 15.1413 24.545 15.5761 24.1354C16.0109 23.7002 16.2283 22.9706 16.2283 21.9466C16.2283 21.4346 16.1516 20.9482 15.9981 20.4875C15.8447 20.0011 15.6784 19.6171 15.4994 19.3355H6.71385V4.16784C6.71385 3.50226 6.63712 2.96467 6.48366 2.55508C6.3302 2.14549 6.10001 1.8255 5.79309 1.5951C5.48617 1.36471 5.10252 1.21111 4.64215 1.13431C4.20735 1.03191 3.69581 0.980713 3.10755 0.980713C2.54487 0.980713 1.95661 1.03191 1.34277 1.13431C0.728932 1.21111 0.281342 1.27511 0 1.32631V21.1786C0 22.2794 0.319707 23.1498 0.959121 23.7898ZM18.268 6.011C17.7309 6.08779 17.3344 6.16459 17.0786 6.24139V17.2235C17.0786 18.6571 17.3088 19.8859 17.7692 20.9098C18.2296 21.9082 18.8818 22.7274 19.7258 23.3674C20.5699 24.0074 21.5673 24.481 22.7183 24.7882C23.8948 25.0953 25.1736 25.2489 26.5548 25.2489C28.0126 25.2489 29.3554 25.0953 30.5831 24.7882C31.8363 24.5066 32.9105 24.0842 33.8057 23.521C34.8799 22.881 35.417 21.921 35.417 20.6411V8.96773C35.417 8.32774 35.3275 7.81575 35.1485 7.43176C34.995 7.02217 34.7648 6.70218 34.4579 6.47179C34.151 6.24139 33.7674 6.08779 33.307 6.011C32.8722 5.9342 32.3734 5.8958 31.8108 5.8958C31.2225 5.8958 30.647 5.9342 30.0843 6.011C29.5472 6.08779 29.1508 6.16459 28.895 6.24139V19.6811C28.6904 19.7835 28.3963 19.8859 28.0126 19.9883C27.6546 20.0907 27.1814 20.1419 26.5931 20.1419C25.6212 20.1419 24.8795 19.9243 24.368 19.4891C23.8564 19.0283 23.6007 18.2731 23.6007 17.2235V8.96773C23.6007 8.32774 23.5112 7.81575 23.3321 7.43176C23.1787 7.02217 22.9485 6.70218 22.6416 6.47179C22.3346 6.24139 21.951 6.08779 21.4906 6.011C21.0558 5.9342 20.5571 5.8958 19.9944 5.8958C19.4061 5.8958 18.8306 5.9342 18.268 6.011ZM46.6208 5.39661C48.1554 5.39661 49.5749 5.60141 50.8793 6.011C52.2093 6.39499 53.3474 6.99657 54.2938 7.81575C55.2401 8.63493 55.9818 9.67171 56.5189 10.9261C57.056 12.1549 57.3246 13.6268 57.3246 15.342C57.3246 16.9803 57.0944 18.4139 56.634 19.6427C56.1736 20.8714 55.5214 21.9082 54.6774 22.753C53.8334 23.5722 52.8103 24.1866 51.6082 24.5962C50.4317 25.0058 49.1145 25.2105 47.6566 25.2105C46.5568 25.2105 45.5338 25.0441 44.5874 24.7114V31.0856C44.3317 31.1624 43.9225 31.2392 43.3598 31.316C42.7971 31.4184 42.2216 31.4696 41.6334 31.4696C41.0707 31.4696 40.5591 31.4312 40.0988 31.3544C39.664 31.2776 39.2931 31.124 38.9862 30.8936C38.6793 30.6632 38.4491 30.3432 38.2956 29.9336C38.1422 29.5496 38.0654 29.0377 38.0654 28.3977V9.9661C38.0654 9.27492 38.2061 8.71173 38.4874 8.27654C38.7944 7.84135 39.2036 7.44456 39.7151 7.08617C40.508 6.57418 41.4927 6.16459 42.6692 5.8574C43.8457 5.55021 45.1629 5.39661 46.6208 5.39661ZM71.9784 6.011C70.674 5.60141 69.2545 5.39661 67.7199 5.39661C66.2621 5.39661 64.9449 5.55021 63.7684 5.8574C62.5919 6.16459 61.6072 6.57418 60.8143 7.08617C60.3027 7.44456 59.8935 7.84135 59.5866 8.27654C59.3053 8.71173 59.1646 9.27492 59.1646 9.9661V28.3977C59.1646 29.0377 59.2413 29.5496 59.3948 29.9336C59.5482 30.3432 59.7784 30.6632 60.0853 30.8936C60.3923 31.124 60.7631 31.2776 61.1979 31.3544C61.6583 31.4312 62.1698 31.4696 62.7325 31.4696C63.3208 31.4696 63.8963 31.4184 64.4589 31.316C65.0216 31.2392 65.4308 31.1624 65.6866 31.0856V24.7114C66.6329 25.0441 67.656 25.2105 68.7558 25.2105C70.2137 25.2105 71.5309 25.0058 72.7074 24.5962C73.9095 24.1866 74.9325 23.5722 75.7766 22.753C76.6206 21.9082 77.2728 20.8714 77.7332 19.6427C78.1935 18.4139 78.4237 16.9803 78.4237 15.342C78.4237 13.6268 78.1552 12.1549 77.6181 10.9261C77.081 9.67171 76.3392 8.63493 75.3929 7.81575C74.4466 6.99657 73.3084 6.39499 71.9784 6.011ZM82.6924 19.8731C82.4111 19.2331 82.1042 18.5163 81.7717 17.7227C81.4648 16.9291 81.1322 16.0204 80.7742 14.9964C80.4417 13.9724 80.0836 12.8076 79.7 11.5021C79.3419 10.1709 78.9582 8.64773 78.549 6.93257C78.9071 6.57418 79.3803 6.26699 79.9685 6.011C80.5824 5.7294 81.2474 5.58861 81.9635 5.58861C82.8587 5.58861 83.6004 5.7806 84.1887 6.16459C84.7769 6.52298 85.2117 7.21417 85.4931 8.23814L88.5239 18.7979H88.6773C88.9843 17.9275 89.2784 16.9803 89.5597 15.9564C89.8667 14.9324 90.1608 13.8828 90.4421 12.8076C90.7235 11.7069 90.9792 10.6189 91.2094 9.54371C91.4652 8.44294 91.6826 7.36776 91.8616 6.31819C92.7824 5.8318 93.7926 5.58861 94.8924 5.58861C95.7876 5.58861 96.5293 5.7806 97.1176 6.16459C97.7059 6.54858 98 7.21417 98 8.16135C98 8.85253 97.9105 9.65891 97.7314 10.5805C97.5524 11.4765 97.3094 12.4364 97.0025 13.4604C96.7212 14.4844 96.3759 15.5468 95.9667 16.6475C95.583 17.7227 95.1738 18.7851 94.739 19.8347C94.3042 20.8842 93.8566 21.8826 93.3962 22.8298C92.9358 23.7514 92.4882 24.5834 92.0534 25.3257C91.3373 26.5801 90.6723 27.6041 90.0585 28.3977C89.4446 29.1913 88.8564 29.8056 88.2937 30.2408C87.731 30.7016 87.1683 31.0088 86.6056 31.1624C86.043 31.3416 85.4547 31.4312 84.8409 31.4312C83.7666 31.4312 82.897 31.1112 82.2321 30.4712C81.5671 29.8312 81.1706 28.9993 81.0427 27.9753C81.8612 27.3353 82.6796 26.6185 83.4981 25.8249C84.3165 25.0569 85.0583 24.2634 85.7233 23.4442C85.2885 23.3162 84.8153 23.0218 84.3038 22.561C83.8178 22.0746 83.2807 21.1786 82.6924 19.8731ZM50.2267 10.7384C51.5741 11.4278 51.9813 14.2552 48.6811 13.9617C47.5484 13.861 47.7566 9.47453 50.2267 10.7384ZM47.1433 13.4835C46.093 15.0917 42.8677 13.5256 44.6198 11.1865C45.9795 9.37108 48.1936 11.8754 47.1433 13.4835ZM50.5698 17.0559C49.6624 16.5147 49.2841 14.1945 51.9051 14.5941C53.2871 14.8047 52.1152 18.1438 50.5698 17.0559ZM44.2164 16.5942C44.8682 14.4818 49.3986 12.5659 49.8817 18.0923C50.1364 21.0063 42.7682 20.2741 44.2164 16.5942ZM42.5737 13.9299C43.5011 13.4575 45.2402 14.3711 43.7457 16.0909C43.2327 16.6812 40.8733 14.796 42.5737 13.9299ZM71.2472 10.7384C72.5946 11.4278 73.0018 14.2552 69.7016 13.9617C68.5689 13.861 68.7771 9.4745 71.2472 10.7384ZM68.1638 13.4835C67.1135 15.0916 63.8883 13.5256 65.6403 11.1865C67 9.37105 69.2141 11.8753 68.1638 13.4835ZM71.5903 17.0558C70.6829 16.5147 70.3046 14.1945 72.9256 14.594C74.3076 14.8047 73.1357 18.1438 71.5903 17.0558ZM65.2369 16.5942C65.8887 14.4818 70.4191 12.5658 70.9022 18.0922C71.1569 21.0062 63.7887 20.274 65.2369 16.5942ZM63.5942 13.9299C64.5216 13.4575 66.2607 14.3711 64.7662 16.0909C64.2532 16.6812 61.8938 14.796 63.5942 13.9299Z" fill="#040054"/>
</svg>
